<svg xmlns="http://www.w3.org/2000/svg" viewBox="0 0 340 64" role="img" aria-label="Object Oriented Programming Lab logo">
  <g>
  <rect x="0" y="0" width="64" height="64" rx="15" fill="#155E63"/>
  <path d="M22,13 C15,13 16,22 16,26 C16,29 14,31 10,32 C14,33 16,35 16,38 C16,42 15,51 22,51" fill="none" stroke="#FFFFFF" stroke-width="4.6" stroke-linecap="round" stroke-linejoin="round"/>
  <path d="M42,13 C49,13 48,22 48,26 C48,29 50,31 54,32 C50,33 48,35 48,38 C48,42 49,51 42,51" fill="none" stroke="#FFFFFF" stroke-width="4.6" stroke-linecap="round" stroke-linejoin="round"/>
  <path d="M32,20 L42,25.5 L42,37.5 L32,43 L22,37.5 L22,25.5 Z" fill="#E07A1F"/>
  <path d="M32,20 L42,25.5 L32,31 L22,25.5 Z" fill="#F4A259"/>
  <path d="M32,31 L32,43" stroke="#9A4300" stroke-width="1.4"/>
  </g>
  <text x="78" y="27" font-family="'Bricolage Grotesque',system-ui,sans-serif" font-weight="700" font-size="15" letter-spacing="1.5" fill="#44536A">OBJECT ORIENTED</text>
  <text x="77" y="52" font-family="'Bricolage Grotesque',system-ui,sans-serif" font-weight="800" font-size="27" fill="#E07A1F">Programming Lab</text>
</svg>
